<svg width="28" height="28" viewBox="0 0 28 28" fill="none" xmlns="http://www.w3.org/2000/svg">
<g clip-path="url(#clip0_635_104189)">
<g opacity="0.4" filter="url(#filter0_f_635_104189)">
<path d="M21.5686 28.6118V18.5591H6.53857V28.6118H21.5686Z" fill="black"/>
</g>
<path d="M14.0501 0C12.4844 0 11.5451 4.63972 11.5451 4.63972H16.5551C16.5551 4.63972 15.6157 0 14.0501 0Z" fill="#E3182D"/>
<path d="M6.37663 18.5589H21.7233C22.1724 21.153 22.4 23.7832 22.4 26.4253V28.6116H5.69995V26.4253C5.69995 23.7832 5.92747 21.153 6.37663 18.5589Z" fill="#E3182D"/>
<path d="M11.8072 4.63965H16.2924C16.7075 4.63965 17.0854 4.86141 17.2626 5.20904C19.4272 9.45406 20.925 13.9494 21.7231 18.5588H6.37646C7.17455 13.9494 8.67238 9.45406 10.837 5.20904C11.0142 4.8614 11.3921 4.63965 11.8072 4.63965Z" fill="url(#paint0_linear_635_104189)"/>
<path d="M11.8072 4.63965H16.2924C16.7075 4.63965 17.0854 4.86141 17.2626 5.20904C19.4272 9.45406 20.925 13.9494 21.7231 18.5588H6.37646C7.17455 13.9494 8.67238 9.45406 10.837 5.20904C11.0142 4.8614 11.3921 4.63965 11.8072 4.63965Z" fill="url(#paint1_linear_635_104189)"/>
<path d="M11.8072 4.63965H16.2924C16.7075 4.63965 17.0854 4.86141 17.2626 5.20904C19.4272 9.45406 20.925 13.9494 21.7231 18.5588H6.37646C7.17455 13.9494 8.67238 9.45406 10.837 5.20904C11.0142 4.8614 11.3921 4.63965 11.8072 4.63965Z" fill="url(#paint2_linear_635_104189)"/>
<path opacity="0.44" d="M21.7233 18.5591L6.37663 18.5591C5.92747 21.1532 5.69995 23.7834 5.69995 26.4255V28.6118H22.4V26.4255C22.4 23.7834 22.1724 21.1532 21.7233 18.5591Z" fill="url(#paint3_linear_635_104189)"/>
<path opacity="0.48" d="M21.7233 18.5591L6.37663 18.5591C5.92747 21.1532 5.69995 23.7834 5.69995 26.4255V28.6118H22.4V26.4255C22.4 23.7834 22.1724 21.1532 21.7233 18.5591Z" fill="url(#paint4_linear_635_104189)"/>
<path d="M11.5448 4.63972C11.5448 4.63972 12.4842 0 14.0498 0C15.6154 0 16.5548 4.63972 16.5548 4.63972H11.5448Z" fill="url(#paint5_linear_635_104189)"/>
<path d="M11.5448 4.63972C11.5448 4.63972 12.4842 0 14.0498 0C15.6154 0 16.5548 4.63972 16.5548 4.63972H11.5448Z" fill="url(#paint6_radial_635_104189)"/>
<path d="M11.5448 4.63972C11.5448 4.63972 12.4842 0 14.0498 0C15.6154 0 16.5548 4.63972 16.5548 4.63972H11.5448Z" fill="url(#paint7_linear_635_104189)"/>
<g opacity="0.5" filter="url(#filter1_f_635_104189)">
<path d="M14.4669 5.7998C14.4669 5.7998 18.8778 15.4659 18.8778 22.3591C18.8778 24.361 18.8778 39.6002 18.8778 39.6002" stroke="white"/>
</g>
</g>
<defs>
<filter id="filter0_f_635_104189" x="0.538574" y="12.5591" width="27.03" height="22.0527" filterUnits="userSpaceOnUse" color-interpolation-filters="sRGB">
<feFlood flood-opacity="0" result="BackgroundImageFix"/>
<feBlend mode="normal" in="SourceGraphic" in2="BackgroundImageFix" result="shape"/>
<feGaussianBlur stdDeviation="3" result="effect1_foregroundBlur_635_104189"/>
</filter>
<filter id="filter1_f_635_104189" x="10.0121" y="1.59229" width="13.3657" height="42.0078" filterUnits="userSpaceOnUse" color-interpolation-filters="sRGB">
<feFlood flood-opacity="0" result="BackgroundImageFix"/>
<feBlend mode="normal" in="SourceGraphic" in2="BackgroundImageFix" result="shape"/>
<feGaussianBlur stdDeviation="2" result="effect1_foregroundBlur_635_104189"/>
</filter>
<linearGradient id="paint0_linear_635_104189" x1="11.1273" y1="10.0527" x2="18.9754" y2="7.82254" gradientUnits="userSpaceOnUse">
<stop stop-color="#333333"/>
<stop offset="0.555783" stop-color="#565254"/>
<stop offset="0.983912" stop-color="#888386"/>
</linearGradient>
<linearGradient id="paint1_linear_635_104189" x1="7.78729" y1="11.9859" x2="11.4834" y2="13.3162" gradientUnits="userSpaceOnUse">
<stop stop-color="#999396"/>
<stop offset="1" stop-color="#605A5D" stop-opacity="0"/>
</linearGradient>
<linearGradient id="paint2_linear_635_104189" x1="6.11729" y1="18.5588" x2="7.78729" y2="18.5588" gradientUnits="userSpaceOnUse">
<stop stop-color="#7A7477"/>
<stop offset="1" stop-color="#7A7477" stop-opacity="0"/>
</linearGradient>
<linearGradient id="paint3_linear_635_104189" x1="6.11745" y1="21.6522" x2="21.5482" y2="23.0032" gradientUnits="userSpaceOnUse">
<stop stop-color="white"/>
<stop offset="0.226711"/>
<stop offset="0.590118" stop-opacity="0.66"/>
<stop offset="1" stop-opacity="0"/>
</linearGradient>
<linearGradient id="paint4_linear_635_104189" x1="21.9825" y1="21.2656" x2="16.9782" y2="21.7159" gradientUnits="userSpaceOnUse">
<stop stop-color="white" stop-opacity="0.04"/>
<stop offset="1" stop-opacity="0"/>
</linearGradient>
<linearGradient id="paint5_linear_635_104189" x1="17.8073" y1="1.93322" x2="14.5343" y2="3.25855" gradientUnits="userSpaceOnUse">
<stop stop-color="white"/>
<stop offset="1" stop-color="white" stop-opacity="0"/>
</linearGradient>
<radialGradient id="paint6_radial_635_104189" cx="0" cy="0" r="1" gradientUnits="userSpaceOnUse" gradientTransform="translate(15.7198 3.86643) rotate(-164.473) scale(4.33314 7.31117)">
<stop offset="0.760645" stop-color="white" stop-opacity="0"/>
<stop offset="1" stop-color="white"/>
</radialGradient>
<linearGradient id="paint7_linear_635_104189" x1="14.4673" y1="-2.31986" x2="14.1084" y2="0.780076" gradientUnits="userSpaceOnUse">
<stop stop-color="white"/>
<stop offset="1" stop-color="white" stop-opacity="0"/>
</linearGradient>
<clipPath id="clip0_635_104189">
<rect width="28" height="28" fill="white"/>
</clipPath>
</defs>
</svg>
